<svg viewBox="0 0 120 120" fill="none" xmlns="http://www.w3.org/2000/svg">
  <defs>
    <linearGradient id="bizclaw-bg" x1="18" y1="12" x2="104" y2="112" gradientUnits="userSpaceOnUse">
      <stop offset="0" stop-color="#34D399"/>
      <stop offset="1" stop-color="#166534"/>
    </linearGradient>
    <linearGradient id="bizclaw-sheen" x1="28" y1="20" x2="86" y2="84" gradientUnits="userSpaceOnUse">
      <stop offset="0" stop-color="#ECFDF5" stop-opacity="0.95"/>
      <stop offset="1" stop-color="#D1FAE5" stop-opacity="0.72"/>
    </linearGradient>
  </defs>
  <rect x="10" y="10" width="100" height="100" rx="28" fill="url(#bizclaw-bg)"/>
  <path d="M34 28H63.5C79.5 28 89 35.3 89 48.2C89 56.7 84.7 62.7 76.8 66.1C87.4 69.4 93 76.3 93 86.2C93 101.4 81.2 110 59.7 110H34V28ZM52.5 44.2V59.2H61.5C68.8 59.2 72.4 56.6 72.4 51.4C72.4 46.6 68.8 44.2 61.5 44.2H52.5ZM52.5 74V93.8H63.8C72.3 93.8 76.5 90.6 76.5 84.4C76.5 77.5 71.6 74 61.8 74H52.5Z" fill="url(#bizclaw-sheen)"/>
  <path d="M79 34L94 24L90.5 43.5" stroke="#ECFDF5" stroke-width="7" stroke-linecap="round" stroke-linejoin="round"/>
  <circle cx="85.5" cy="45.5" r="4.5" fill="#052E16"/>
</svg>
